<svg xmlns="http://www.w3.org/2000/svg" viewBox="0 0 600 600" width="100%" height="100%" preserveAspectRatio="xMidYMid meet" role="img">
<title>نوّرَة Skincare Logo</title>
<desc>Animated drawing of Nawra skincare logo</desc>
<defs>
  <clipPath id="logoReveal" clipPathUnits="userSpaceOnUse">
    <circle cx="300" cy="290" r="0">
      <animate attributeName="r" from="0" to="450" dur="3s"
        calcMode="spline" keyTimes="0;1" keySplines="0.4 0 0.2 1"
        fill="freeze"/>
    </circle>
  </clipPath>
</defs>
<style>
  .logo-path { fill: #C4956A; stroke: none; }
</style>
<g transform="translate(0,600) scale(0.1,-0.1)" clip-path="url(#logoReveal)">
<path class="logo-path" d="M2986 5047 c-10 -7 -27 -50 -40 -103 -58 -226 -138 -386 -397 -796
-66 -102 -119 -189 -119 -193 0 -4 -8 -19 -19 -33 -69 -100 -158 -311 -185
-444 -20 -96 -20 -261 -1 -353 8 -39 37 -115 65 -171 145 -294 469 -473 787
-434 303 37 534 201 653 464 144 317 62 661 -279 1170 -203 303 -378 662 -406
833 -8 52 -34 78 -59 60z m36 -65 c11 -64 75 -246 123 -348 53 -113 162 -303
293 -505 262 -408 344 -626 329 -878 -10 -168 -62 -303 -164 -427 -355 -429
-1058 -347 -1298 151 -90 187 -96 392 -19 625 41 123 112 260 231 449 170 267
276 448 328 556 57 118 114 274 135 368 15 66 31 69 42 9z" style="animation: fadeIn 0.422s ease forwards 0.0s;"/>
<path class="logo-path" d="M2990 4940 c0 -41 -74 -240 -134 -360 -65 -129 -125 -231 -311 -525
-120 -190 -211 -370 -248 -490 -122 -393 32 -767 385 -929 40 -19 86 -38 102
-42 25 -6 28 -5 23 10 -4 10 -7 35 -7 56 0 55 -39 100 -88 100 -21 0 -51 9
-68 19 -32 20 -90 88 -82 96 10 10 111 -24 132 -44 20 -20 17 -20 -37 5 -66
29 -82 26 -47 -11 24 -26 106 -62 116 -52 4 3 -13 14 -37 23 -23 10 -37 20
-31 22 7 2 19 -1 26 -7 7 -6 21 -9 29 -5 15 5 15 9 0 37 -9 18 -29 48 -45 68
-16 20 -31 52 -35 72 -5 36 13 133 27 142 13 8 72 -92 77 -134 3 -21 0 -55 -7
-75 -9 -30 -9 -44 5 -84 8 -26 27 -60 40 -77 l25 -30 0 185 c0 202 1 207 63
259 26 22 27 25 12 47 -22 33 -21 140 1 148 15 6 14 10 -7 32 -38 41 -77 57
-124 51 -58 -8 -108 8 -180 56 l-60 41 45 13 c77 24 190 -7 225 -60 16 -25 74
-71 81 -65 5 6 -51 84 -105 144 l-43 49 -97 0 c-73 0 -105 4 -133 18 -58 29
-58 66 -1 88 20 7 22 12 13 28 -17 32 -12 54 20 88 20 21 36 30 49 26 11 -3
32 5 49 17 34 25 67 20 77 -11 6 -19 7 -19 35 1 35 25 47 25 60 1 22 -43 5
-121 -40 -178 -28 -36 -25 -64 11 -99 17 -16 40 -44 51 -62 27 -44 33 -34 13
24 -10 29 -13 59 -9 78 9 43 55 136 65 131 4 -3 13 -35 19 -73 12 -64 11 -70
-14 -129 -14 -34 -26 -68 -26 -74 0 -6 12 -38 27 -71 30 -69 43 -62 43 22 0
63 20 100 53 100 46 0 67 -39 67 -125 0 -48 2 -54 23 -57 20 -3 22 -10 25 -62
2 -33 -2 -72 -9 -88 -11 -28 -10 -31 24 -59 51 -42 60 -80 55 -252 -1 -81 0
-147 4 -147 11 0 106 202 123 263 19 67 15 104 -19 171 -13 25 -20 46 -16 46
14 0 40 -37 46 -68 4 -17 10 -29 15 -26 10 6 12 215 3 262 l-6 30 -34 -34
c-19 -19 -39 -34 -43 -34 -9 0 -7 9 16 85 18 57 -30 73 -93 30 -31 -21 -33
-25 -15 -25 12 0 38 7 58 15 44 18 54 13 19 -10 -31 -21 -98 -31 -121 -18 -14
8 -10 14 29 37 l46 27 -67 36 c-100 53 -152 91 -157 116 -3 12 -7 56 -11 98
l-6 76 39 27 c22 15 47 44 58 67 22 50 61 71 134 75 62 3 62 4 34 82 -18 49
-37 62 -94 62 -50 0 -73 11 -122 58 -45 43 -47 52 -10 52 47 0 117 -29 147
-60 16 -17 33 -30 37 -30 18 0 -28 62 -71 97 -24 20 -50 52 -58 71 -15 37 -23
156 -10 168 11 11 105 -84 129 -130 16 -31 18 -49 13 -96 -4 -32 -2 -66 3 -76
5 -11 16 -32 23 -49 l12 -30 8 46 c8 52 20 79 44 99 14 12 18 11 26 -1 15 -22
3 -78 -27 -120 -23 -33 -26 -46 -20 -85 3 -25 8 -49 11 -54 3 -5 28 1 56 12
l50 21 52 -24 c68 -31 77 -37 77 -63 0 -14 13 -28 42 -44 23 -12 43 -21 44
-19 3 3 -4 14 -158 257 -110 174 -207 339 -253 429 -36 72 -109 263 -126 329
-13 52 -29 70 -29 32z m117 -333 c20 -45 63 -128 95 -183 32 -56 58 -105 58
-109 0 -4 -11 -15 -24 -26 -13 -10 -29 -32 -36 -49 -18 -43 -30 -21 -30 57 0
34 -5 74 -10 88 -14 36 -119 145 -140 145 -46 0 -53 -126 -11 -208 12 -23 21
-43 21 -44 0 -2 -19 -2 -43 0 -62 5 -78 -16 -46 -63 36 -54 104 -95 155 -95
48 0 84 -28 84 -66 0 -18 -7 -22 -45 -27 -68 -10 -98 -30 -129 -86 -15 -28
-31 -51 -35 -51 -5 0 -21 -12 -36 -27 -25 -26 -27 -32 -21 -83 l6 -55 -17 30
c-20 38 -34 47 -51 33 -20 -17 -49 -79 -63 -132 -9 -38 -14 -44 -25 -35 -21
17 -17 45 11 93 63 108 29 238 -51 195 -20 -10 -27 -10 -42 4 -24 22 -48 21
-81 -2 -16 -11 -36 -18 -48 -15 -14 4 -30 -6 -57 -37 -33 -35 -37 -46 -33 -75
5 -27 2 -36 -13 -44 -76 -41 -26 -118 89 -136 43 -7 40 -24 -5 -24 -32 0 -48
-24 -34 -49 18 -35 129 -100 182 -107 57 -8 55 -17 -9 -33 -27 -7 -58 -19 -70
-27 -33 -21 -55 -70 -48 -105 13 -56 107 -78 171 -39 61 38 99 165 57 189 -16
9 -16 10 -2 11 9 0 27 -8 39 -18 21 -17 23 -27 21 -98 -1 -43 3 -86 8 -94 7
-10 0 -25 -30 -57 l-39 -43 0 -98 c0 -120 -9 -194 -23 -185 -6 3 -7 38 -3 92
7 83 6 88 -24 148 -36 73 -55 91 -78 77 -43 -27 -52 -155 -17 -224 l17 -33
-40 7 c-55 8 -78 -13 -58 -52 28 -54 84 -94 145 -106 48 -9 71 -33 71 -73 0
-31 -2 -34 -22 -27 -44 13 -142 67 -193 104 -122 90 -229 258 -260 405 -38
181 2 410 106 618 34 67 166 287 220 368 53 79 166 268 222 370 44 81 137 291
137 309 0 5 5 21 11 37 10 27 12 24 44 -65 19 -51 51 -130 72 -175z m338 -585
c-2 -2 -22 6 -46 18 -41 22 -65 22 -126 4 -37 -10 -42 37 -10 100 15 28 29 64
32 80 6 28 10 24 80 -85 40 -62 72 -115 70 -117z m-455 -448 c0 -2 -11 -4 -24
-4 -27 0 -66 -42 -66 -71 0 -10 -4 -21 -10 -24 -17 -10 -11 43 12 108 l21 62
34 -33 c18 -19 33 -36 33 -38z m-280 11 c15 -18 9 -18 -55 0 l-50 14 46 0 c30
1 51 -4 59 -14z m360 -46 c47 -24 49 -31 16 -52 -23 -16 -24 -15 -31 11 -4 15
-14 35 -22 45 -21 22 -12 22 37 -4z m82 -117 l58 4 0 -32 c0 -39 23 -51 56
-29 l24 15 0 -70 0 -71 -27 19 c-16 11 -37 29 -47 41 -25 27 -37 26 -65 -3
-19 -20 -21 -28 -12 -45 17 -31 52 -52 67 -40 17 14 28 6 48 -35 24 -51 20
-115 -15 -209 -50 -139 -58 -141 -59 -16 0 137 -6 163 -45 204 -31 34 -31 34
-27 123 4 88 4 90 -22 107 -16 11 -26 26 -26 42 0 23 1 23 17 8 13 -13 30 -16
75 -13z m-376 -74 c-16 -98 -77 -142 -158 -117 -35 11 -44 19 -46 40 -5 42 33
77 108 98 101 29 104 29 96 -21z m424 -63 c0 -8 7 -15 15 -15 12 0 11 -4 -5
-20 -19 -19 -21 -19 -37 -2 -16 15 -16 19 -3 34 19 21 30 22 30 3z" style="animation: fadeIn 0.422s ease forwards 0.041s;"/>
<path class="logo-path" d="M2772 4217 c-28 -29 -28 -38 1 -65 29 -28 38 -28 65 1 28 29 28 38
-1 65 -29 28 -38 28 -65 -1z m54 -49 c-18 -15 -22 -15 -32 -3 -6 8 -17 15 -24
15 -7 0 -2 8 11 19 22 17 25 17 45 3 l21 -16 -21 -18z" style="animation: fadeIn 0.422s ease forwards 0.082s;"/>
<path class="logo-path" d="M2897 4106 c-20 -8 -44 -19 -53 -27 -41 -34 -60 -163 -28 -189 13
-11 26 -8 81 21 38 20 73 46 84 64 25 39 25 106 1 128 -22 20 -35 20 -85 3z
m89 -41 c3 -12 -1 -39 -10 -59 -12 -29 -26 -42 -70 -61 -30 -13 -57 -29 -61
-34 -18 -29 -27 -7 -23 54 3 54 9 70 30 92 25 25 89 44 116 35 7 -2 15 -14 18
-27z" style="animation: fadeIn 0.422s ease forwards 0.124s;"/>
<path class="logo-path" d="M2889 4065 c-28 -15 -62 -76 -57 -101 2 -9 11 0 23 23 11 21 33 50
50 65 33 30 25 36 -16 13z" style="animation: fadeIn 0.422s ease forwards 0.165s;"/>
<path class="logo-path" d="M2930 4055 c-19 -21 -21 -25 -7 -25 9 0 17 -4 17 -9 0 -17 -30 -33
-51 -28 -17 5 -20 2 -16 -13 3 -11 -1 -21 -11 -25 -8 -3 -12 -8 -9 -11 9 -9
85 34 101 58 17 24 22 78 8 78 -5 0 -19 -11 -32 -25z" style="animation: fadeIn 0.422s ease forwards 0.206s;"/>
<path class="logo-path" d="M2391 3464 c-25 -32 -26 -43 -5 -72 20 -30 51 -25 77 10 l21 28 -29
30 c-16 16 -32 30 -36 30 -4 0 -17 -12 -28 -26z m39 -8 c0 -8 7 -16 15 -20 13
-5 12 -9 -6 -27 -20 -20 -21 -20 -34 -2 -17 22 -19 33 -5 33 6 0 10 7 10 15 0
8 5 15 10 15 6 0 10 -6 10 -14z" style="animation: fadeIn 0.422s ease forwards 0.247s;"/>
<path class="logo-path" d="M2413 3224 c-24 -23 -43 -47 -43 -53 0 -5 14 -19 30 -31 17 -12 30
-27 30 -35 0 -15 30 -29 40 -18 4 4 23 26 43 48 l35 40 -46 46 -47 46 -42 -43z
m92 -40 l28 -11 -27 -7 c-19 -5 -28 -15 -33 -36 -6 -34 -23 -41 -23 -10 0 12
-13 28 -32 40 -18 11 -27 20 -19 20 24 0 51 31 52 59 0 24 2 23 13 -9 8 -22
23 -38 41 -46z" style="animation: fadeIn 0.422s ease forwards 0.288s;"/>
<path class="logo-path" d="M2506 3018 c-21 -29 -20 -51 2 -71 25 -23 34 -21 62 8 l24 25 -21 28
c-26 35 -47 39 -67 10z m47 -50 c-13 -15 -16 -15 -33 -1 -16 14 -16 17 -1 32
14 14 18 14 32 1 14 -13 14 -17 2 -32z" style="animation: fadeIn 0.422s ease forwards 0.329s;"/>
<path class="logo-path" d="M2680 3350 c-67 -19 -90 -39 -90 -77 0 -26 21 -31 39 -9 9 11 9 15
-1 18 -10 4 -10 8 2 22 10 14 24 17 51 13 28 -4 39 -1 43 10 5 11 2 13 -9 9
-9 -3 -13 -2 -10 3 5 9 45 11 45 3 0 -2 -12 -19 -26 -38 -16 -21 -35 -34 -49
-34 -12 0 -28 -7 -35 -15 -10 -13 -9 -15 8 -15 35 0 70 18 88 46 18 26 28 85
16 83 -4 0 -36 -9 -72 -19z" style="animation: fadeIn 0.422s ease forwards 0.371s;"/>
<path class="logo-path" d="M3025 4423 c8 -68 27 -112 61 -144 13 -12 24 -20 24 -17 0 3 -16 39
-35 81 -38 82 -39 87 -27 87 5 0 24 -38 43 -85 19 -47 37 -85 42 -85 10 0 9
74 -3 104 -11 30 -88 116 -102 116 -7 0 -8 -22 -3 -57z" style="animation: fadeIn 0.422s ease forwards 0.412s;"/>
<path class="logo-path" d="M3239 4235 c-20 -37 -33 -98 -19 -90 19 12 41 66 38 93 l-3 27 -16
-30z" style="animation: fadeIn 0.422s ease forwards 0.453s;"/>
<path class="logo-path" d="M2989 4217 c44 -48 131 -75 131 -41 0 11 -6 14 -20 9 -11 -3 -28 -1
-37 5 -15 9 -14 10 10 5 15 -3 27 -3 27 0 0 9 -56 33 -95 40 l-40 8 24 -26z" style="animation: fadeIn 0.422s ease forwards 0.494s;"/>
<path class="logo-path" d="M3290 4004 c-14 -7 -52 -14 -85 -14 -90 0 -134 -15 -153 -53 -10 -18
-39 -53 -65 -78 -42 -41 -47 -50 -38 -67 6 -12 11 -45 11 -75 0 -43 4 -57 23
-74 21 -19 173 -113 182 -113 3 0 -17 27 -43 61 -61 79 -114 168 -110 188 4
17 30 19 62 6 19 -8 19 -8 1 22 -14 23 -16 39 -10 69 5 22 9 45 9 53 1 15 56
36 56 21 0 -12 -28 -32 -38 -26 -21 13 2 -146 24 -164 22 -19 26 -7 9 33 -23
55 -19 92 13 128 24 27 37 33 83 36 128 9 130 9 160 -25 31 -34 35 -55 19 -96
-5 -14 -6 -26 -2 -26 22 0 41 31 52 83 14 69 9 78 -58 107 -51 23 -67 24 -102
4z m104 -29 c30 -13 36 -20 36 -47 l0 -31 -23 34 c-12 18 -34 39 -47 46 -35
18 -10 16 34 -2z m-378 -160 c-12 -6 -22 -21 -24 -33 -4 -23 37 -112 66 -145
25 -28 10 -27 -33 2 -39 26 -40 29 -47 100 -6 71 -5 74 20 96 24 21 28 21 33
7 4 -11 -1 -20 -15 -27z" style="animation: fadeIn 0.422s ease forwards 0.535s;"/>
<path class="logo-path" d="M3270 3940 c0 -5 8 -10 18 -10 42 0 84 -79 62 -119 -8 -17 -8 -21 4
-21 15 0 36 49 36 87 0 36 -42 73 -85 73 -19 0 -35 -4 -35 -10z" style="animation: fadeIn 0.422s ease forwards 0.576s;"/>
<path class="logo-path" d="M3168 3924 c-15 -8 -31 -26 -34 -41 -6 -22 -1 -32 25 -55 17 -15 41
-28 54 -28 20 0 19 2 -10 26 -18 14 -33 32 -33 39 0 20 40 45 71 45 31 0 64
-33 56 -55 -8 -18 4 -20 21 -3 8 8 12 9 12 1 0 -6 -19 -25 -42 -43 -35 -25
-50 -30 -77 -26 -18 3 -42 13 -52 22 -27 24 -33 12 -15 -25 10 -19 27 -33 44
-37 15 -3 33 -8 40 -10 8 -2 33 8 57 22 82 47 71 133 -20 166 -60 21 -62 21
-97 2z" style="animation: fadeIn 0.422s ease forwards 0.618s;"/>
<path class="logo-path" d="M3462 3863 c-16 -67 -26 -133 -19 -133 12 0 37 60 37 89 0 84 36 74
45 -13 7 -60 5 -66 -24 -106 -36 -50 -44 -28 -11 33 11 20 20 52 19 69 l-1 33
-8 -31 c-4 -18 -16 -45 -27 -60 -12 -16 -26 -47 -32 -69 -12 -43 -74 -125 -86
-113 -4 4 7 24 24 44 18 20 37 47 42 61 10 26 13 133 3 133 -3 0 -39 -16 -81
-35 l-75 -35 36 -33 c36 -34 39 -45 38 -124 l-1 -41 32 10 c50 17 95 55 118
101 12 23 33 55 46 71 21 25 23 35 17 65 -4 20 -7 50 -6 68 2 26 -3 34 -30 47
-17 9 -34 16 -38 16 -3 0 -12 -21 -18 -47z m-73 -210 c-17 -31 -23 -29 -37 11
-7 19 -20 40 -28 47 -13 11 -10 15 28 30 l43 17 3 -41 c2 -22 -2 -51 -9 -64z
m67 -29 c-4 -9 -9 -15 -11 -12 -3 3 -3 13 1 22 4 9 9 15 11 12 3 -3 3 -13 -1
-22z" style="animation: fadeIn 0.422s ease forwards 0.659s;"/>
<path class="logo-path" d="M2614 3869 c-14 -15 -26 -19 -47 -15 -21 4 -29 1 -34 -12 -4 -9 -15
-24 -26 -32 -18 -15 -18 -16 5 -49 13 -18 48 -47 78 -64 l55 -30 -60 55 c-58
54 -59 56 -46 82 13 23 19 25 50 20 34 -7 35 -6 21 11 -14 17 -13 18 3 12 9
-3 17 -2 17 4 0 21 25 2 26 -20 1 -12 6 -27 13 -34 6 -6 11 -18 11 -26 0 -11
-9 -6 -26 14 l-25 30 16 -33 c9 -19 14 -36 11 -39 -3 -3 2 -20 10 -37 l16 -31
-29 27 c-52 51 -104 91 -109 85 -7 -7 111 -110 137 -119 19 -7 20 -5 13 25 -4
17 -6 58 -5 89 1 40 -4 66 -15 83 -20 30 -35 32 -60 4z" style="animation: fadeIn 0.422s ease forwards 0.7s;"/>
<path class="logo-path" d="M3194 3875 c-9 -24 5 -37 22 -20 9 8 27 15 40 15 14 0 22 4 19 10
-10 16 -75 12 -81 -5z" style="animation: fadeIn 0.422s ease forwards 0.741s;"/>
<path class="logo-path" d="M2724 3858 c-16 -20 -18 -34 -14 -93 l5 -70 24 34 c18 24 24 47 25
89 1 62 -11 74 -40 40z m13 -40 c-3 -8 -6 -5 -6 6 -1 11 2 17 5 13 3 -3 4 -12
1 -19z m0 -60 c-3 -7 -5 -2 -5 12 0 14 2 19 5 13 2 -7 2 -19 0 -25z" style="animation: fadeIn 0.422s ease forwards 0.782s;"/>
<path class="logo-path" d="M3560 3848 c0 -13 5 -40 11 -61 9 -35 7 -42 -28 -99 -21 -33 -57 -81
-81 -106 -36 -38 -40 -47 -28 -54 9 -5 23 -23 32 -40 15 -29 15 -31 -2 -23
-11 4 -42 13 -70 19 -27 7 -56 16 -63 21 -11 6 -12 1 -7 -26 17 -90 18 -275 2
-353 -9 -44 -15 -80 -13 -82 6 -6 97 127 97 141 0 8 -5 34 -11 57 -10 36 -9
50 5 83 16 37 18 39 29 20 6 -11 11 -44 11 -72 0 -29 2 -53 3 -53 10 0 43 97
43 126 0 48 21 93 60 132 40 38 60 42 53 10 -15 -70 -37 -118 -64 -144 -43
-41 -63 -82 -49 -99 8 -10 6 -17 -11 -29 -41 -28 -12 -29 39 -1 29 16 64 46
82 71 40 56 22 57 -54 3 -39 -28 -55 -35 -48 -22 15 27 81 71 120 79 38 8 39
2 9 -51 -29 -51 -98 -103 -148 -111 -34 -6 -47 -17 -109 -96 -64 -81 -97 -135
-87 -144 2 -2 29 21 60 51 63 62 107 85 165 85 52 0 104 -11 100 -20 -6 -15
-102 -90 -137 -106 -29 -14 -42 -15 -84 -5 -44 10 -53 9 -84 -10 -20 -13 -44
-42 -60 -72 -14 -29 -37 -70 -51 -92 -17 -26 -28 -61 -33 -103 -15 -139 -24
-71 -21 155 2 130 1 247 -2 259 -6 24 -91 114 -107 114 -5 0 -9 -49 -9 -109
l0 -109 38 9 c20 5 41 9 45 9 5 0 5 5 2 10 -3 6 -19 10 -35 10 -16 0 -32 5
-36 12 -5 8 5 9 35 5 24 -3 45 -8 48 -11 11 -11 14 -210 5 -291 -9 -75 -9 -70
-11 86 l-1 165 -44 -10 -45 -10 -5 -106 c-2 -58 -7 -124 -11 -148 -6 -37 -10
-43 -29 -40 -18 3 -23 14 -34 88 -7 47 -11 112 -9 146 l3 61 -49 10 c-47 9
-48 9 -43 -11 3 -12 6 -73 7 -136 0 -74 3 -108 9 -95 5 11 9 64 9 118 1 90 2
97 21 97 18 0 20 -7 20 -84 0 -45 4 -96 9 -112 5 -16 12 -43 15 -60 5 -29 3
-31 -43 -40 l-49 -10 -6 50 c-3 28 -6 115 -6 193 l0 142 38 6 c20 4 43 7 51 8
11 2 14 20 14 77 0 62 -3 76 -16 78 -10 2 -17 -2 -17 -9 0 -7 -18 -29 -40 -49
-46 -42 -41 -9 -41 -329 0 -172 3 -207 16 -220 21 -21 231 -29 266 -10 15 7
24 8 26 2 2 -6 29 -3 71 8 265 71 461 265 528 523 51 195 18 404 -103 657 -47
99 -63 118 -63 77z m64 -135 c86 -181 119 -418 81 -581 -54 -228 -225 -417
-450 -496 l-70 -25 -3 49 c-3 42 3 59 49 140 68 118 86 133 156 124 72 -9 92
-2 165 57 80 64 88 77 58 101 -25 21 -130 25 -176 8 -15 -6 -29 -8 -32 -5 -12
12 50 61 97 78 28 9 65 30 82 45 37 31 89 108 89 133 0 28 -24 41 -54 29 -30
-11 -32 -6 -11 43 19 45 19 101 2 116 -32 26 -137 -94 -137 -156 0 -39 -5 -41
-31 -10 l-19 22 -20 -24 c-11 -13 -20 -33 -20 -45 -1 -45 -17 9 -23 77 -6 66
-6 67 19 67 13 0 40 -6 58 -14 25 -10 37 -11 45 -3 15 15 14 49 -3 72 -12 16
-10 23 14 59 64 94 100 154 100 165 0 23 17 10 34 -26z m-74 -448 c0 -2 -10
-9 -22 -15 -22 -11 -22 -10 -4 4 21 17 26 19 26 11z m-170 -65 c0 -21 -4 -42
-10 -45 -6 -4 -10 13 -10 45 0 32 4 49 10 45 6 -3 10 -24 10 -45z m-497 -82
c-16 -18 -33 -42 -37 -52 -3 -10 -9 -16 -13 -13 -10 10 18 67 41 82 36 26 41
16 9 -17z m225 -40 c3 -22 0 -24 -33 -20 -34 4 -35 5 -35 49 l0 46 33 -25 c17
-14 33 -36 35 -50z m-198 7 c0 -20 -5 -25 -27 -25 l-26 0 23 25 c13 14 25 25
27 25 2 0 3 -11 3 -25z m184 -433 c-1 -1 -19 0 -41 4 l-40 6 10 42 c5 22 11
87 14 143 4 95 6 102 26 105 22 3 22 0 27 -147 3 -82 4 -151 4 -153z m-24 -23
c32 -7 48 -15 43 -20 -6 -6 -20 -6 -37 1 -35 13 -167 13 -202 0 -26 -10 -44
-7 -31 6 22 22 150 30 227 13z m-110 -39 c0 -5 -10 -10 -22 -9 -22 0 -22 1 -3
9 11 5 21 9 23 9 1 1 2 -3 2 -9z m60 6 c0 -3 -4 -8 -10 -11 -5 -3 -10 -1 -10
4 0 6 5 11 10 11 6 0 10 -2 10 -4z" style="animation: fadeIn 0.422s ease forwards 0.824s;"/>
<path class="logo-path" d="M3236 3847 c-16 -12 -16 -14 -2 -26 13 -11 19 -11 31 -1 35 29 8 54
-29 27z" style="animation: fadeIn 0.422s ease forwards 0.865s;"/>
<path class="logo-path" d="M3030 3770 c0 -21 34 -61 63 -77 24 -12 47 -14 99 -9 68 6 108 -3
108 -26 0 -7 -5 -6 -15 2 -10 8 -35 10 -84 5 -54 -5 -75 -3 -100 9 -35 19 -41
8 -10 -20 11 -10 36 -40 55 -65 35 -48 73 -69 124 -69 34 0 46 14 55 63 15 79
-24 118 -144 143 -35 8 -82 23 -103 34 -44 23 -48 24 -48 10z m245 -130 c23
-9 26 -15 23 -47 -3 -34 -6 -38 -33 -41 -16 -2 -44 4 -60 13 -32 16 -61 53
-51 63 5 4 43 13 88 21 4 0 19 -3 33 -9z" style="animation: fadeIn 0.422s ease forwards 0.906s;"/>
<path class="logo-path" d="M2845 3705 c-24 -55 -30 -107 -15 -135 12 -22 13 -23 26 -5 19 26 27
93 16 140 l-9 40 -18 -40z m9 -78 c-4 -26 -10 -44 -14 -42 -8 5 -8 10 5 69 9
44 16 25 9 -27z" style="animation: fadeIn 0.422s ease forwards 0.947s;"/>
<path class="logo-path" d="M2465 3704 c-20 -15 -20 -15 3 -34 28 -23 101 -35 138 -23 28 9 28
10 -31 41 -66 36 -81 38 -110 16z m96 -34 c31 -14 38 -20 22 -20 -12 0 -25 5
-28 10 -3 6 -16 10 -28 10 -12 0 -29 5 -37 10 -29 19 25 11 71 -10z" style="animation: fadeIn 0.422s ease forwards 0.988s;"/>
<path class="logo-path" d="M2562 3541 c-10 -6 1 -17 37 -40 39 -25 66 -34 113 -38 42 -4 60 -2
53 4 -9 9 -32 18 -140 52 l-30 9 28 1 c15 1 52 -8 82 -18 30 -11 55 -17 55
-15 0 3 -24 16 -52 29 -53 25 -121 32 -146 16z" style="animation: fadeIn 0.422s ease forwards 1.029s;"/>
<path class="logo-path" d="M2957 3527 c-10 -8 -16 -36 -20 -84 l-4 -73 46 0 46 0 -3 52 c-1 29
-5 63 -7 75 -7 30 -37 46 -58 30z m43 -26 c13 -25 13 -51 0 -51 -5 0 -10 14
-10 30 0 20 -5 30 -15 30 -8 0 -15 -5 -15 -12 0 -6 -3 -9 -6 -5 -9 9 5 27 21
27 8 0 19 -9 25 -19z m-16 -43 c10 -40 7 -68 -9 -68 -11 0 -15 12 -15 45 0 48
14 60 24 23z" style="animation: fadeIn 0.422s ease forwards 1.071s;"/>
<path class="logo-path" d="M3362 3521 c-9 -6 0 -12 29 -19 50 -13 61 -8 33 13 -22 16 -43 19
-62 6z" style="animation: fadeIn 0.422s ease forwards 1.112s;"/>
<path class="logo-path" d="M3272 3493 c-13 -26 -23 -83 -14 -83 12 0 42 56 42 79 0 26 -16 27
-28 4z" style="animation: fadeIn 0.422s ease forwards 1.153s;"/>
<path class="logo-path" d="M3554 3458 c-31 -33 -44 -63 -44 -95 l1 -28 24 30 c45 54 62 140 19
93z" style="animation: fadeIn 0.422s ease forwards 1.194s;"/>
<path class="logo-path" d="M2883 3295 c0 -33 2 -45 4 -27 2 18 2 45 0 60 -2 15 -4 0 -4 -33z" style="animation: fadeIn 0.422s ease forwards 1.235s;"/>
<path class="logo-path" d="M2904 3295 l0 -55 68 0 c39 0 68 4 68 10 0 6 -5 10 -11 10 -8 0 -10
15 -7 45 l6 45 -62 0 -61 0 -1 -55z m86 -5 c0 -19 -5 -30 -14 -30 -30 0 -46
13 -46 36 0 20 5 24 30 24 27 0 30 -3 30 -30z" style="animation: fadeIn 0.422s ease forwards 1.276s;"/>
<path class="logo-path" d="M3051 3296 c1 -41 5 -56 16 -56 18 0 14 101 -4 108 -10 3 -13 -12
-12 -52z" style="animation: fadeIn 0.422s ease forwards 1.318s;"/>
<path class="logo-path" d="M3410 3276 c0 -25 5 -48 10 -51 6 -4 10 13 10 44 0 28 -4 51 -10 51
-5 0 -10 -20 -10 -44z" style="animation: fadeIn 0.422s ease forwards 1.359s;"/>
<path class="logo-path" d="M2900 3218 c0 -5 36 -8 80 -8 44 0 80 3 80 8 0 4 -36 7 -80 7 -44 0
-80 -3 -80 -7z" style="animation: fadeIn 0.422s ease forwards 1.4s;"/>
<path class="logo-path" d="M2950 3121 c0 -77 0 -78 25 -78 25 0 25 1 25 78 0 78 0 79 -25 79
-25 0 -25 -1 -25 -79z" style="animation: fadeIn 0.422s ease forwards 1.441s;"/>
<path class="logo-path" d="M2655 3057 c-9 -56 -1 -106 21 -133 15 -18 15 -18 9 6 -3 14 -8 48
-10 75 -7 70 11 28 20 -47 9 -67 25 -68 25 -2 0 46 -16 93 -43 129 -14 19 -15
17 -22 -28z" style="animation: fadeIn 0.422s ease forwards 1.482s;"/>
<path class="logo-path" d="M3413 3033 c-55 -36 -62 -60 -18 -69 18 -3 44 -3 57 1 21 7 128 83
128 91 0 2 -28 4 -63 4 -51 0 -71 -5 -104 -27z m102 -2 c-13 -11 -126 -44
-132 -38 -2 3 20 14 49 26 56 21 99 28 83 12z" style="animation: fadeIn 0.422s ease forwards 1.524s;"/>
<path class="logo-path" d="M2895 3022 c-50 -5 -63 -14 -35 -22 43 -13 80 -11 80 4 0 19 -8 22
-45 18z" style="animation: fadeIn 0.422s ease forwards 1.565s;"/>
<path class="logo-path" d="M2952 3008 c5 -32 48 -33 48 -1 0 18 -5 23 -26 23 -20 0 -25 -4 -22
-22z" style="animation: fadeIn 0.422s ease forwards 1.606s;"/>
<path class="logo-path" d="M2951 2883 c1 -126 30 -249 39 -163 1 8 4 68 7 133 l5 117 -26 0 -26
0 1 -87z" style="animation: fadeIn 0.422s ease forwards 1.647s;"/>
<path class="logo-path" d="M3526 2562 c-40 -16 -75 -37 -84 -50 -14 -21 -14 -25 5 -43 16 -16
24 -18 46 -10 33 13 34 7 3 -30 -28 -33 -25 -61 12 -89 32 -26 38 -25 73 9 38
38 37 56 -6 96 l-35 32 40 12 c47 14 79 54 63 80 -15 24 -40 22 -117 -7z m104
1 c-1 -19 -20 -31 -88 -56 -40 -15 -78 -27 -83 -27 -18 0 11 40 29 40 9 1 42
12 72 25 62 26 70 28 70 18z m-62 -146 l22 -23 -25 -24 -25 -23 -25 23 -25 24
22 23 c12 13 24 23 28 23 4 0 16 -10 28 -23z" style="animation: fadeIn 0.422s ease forwards 1.688s;"/>
<path class="logo-path" d="M3250 2485 c-7 -9 -21 -13 -31 -10 -11 4 -23 -2 -31 -14 -10 -14 -18
-17 -28 -11 -22 14 -50 -18 -50 -57 0 -42 33 -78 63 -68 12 3 38 10 57 15 45
12 70 45 70 96 0 55 -25 80 -50 49z m30 -38 c0 -44 -26 -80 -52 -72 -12 4 -27
0 -38 -10 -21 -19 -47 -14 -56 10 -8 20 4 65 17 65 6 0 8 -9 4 -19 -3 -11 -1
-22 5 -26 16 -10 40 14 40 41 0 13 5 24 10 24 6 0 10 -11 10 -25 0 -14 4 -25
8 -25 15 0 32 24 32 47 0 13 5 23 10 23 6 0 10 -15 10 -33z" style="animation: fadeIn 0.422s ease forwards 1.729s;"/>
<path class="logo-path" d="M2406 2449 c-33 -26 -33 -59 -1 -89 22 -20 27 -21 54 -11 22 10 33
10 48 0 41 -25 103 49 72 87 -25 30 -49 36 -73 20 -21 -13 -26 -13 -42 -1 -25
19 -27 19 -58 -6z m57 -26 c13 -16 14 -21 1 -37 -12 -17 -17 -18 -39 -6 -28
15 -31 24 -12 45 16 19 31 18 50 -2z m97 2 c10 -13 10 -19 -5 -35 -21 -24 -24
-24 -49 -5 -19 14 -19 15 -1 35 22 24 38 25 55 5z" style="animation: fadeIn 0.422s ease forwards 1.771s;"/>
<path class="logo-path" d="M2820 2424 c-75 -29 -102 -50 -98 -77 5 -31 29 -40 63 -26 17 7 35
13 42 15 44 9 85 28 93 44 15 28 12 57 -6 64 -21 8 -20 8 -94 -20z m98 -6 c-5
-15 -32 -29 -116 -62 -52 -20 -63 -21 -60 -9 4 19 13 24 98 56 77 30 83 31 78
15z" style="animation: fadeIn 0.422s ease forwards 1.812s;"/>
<path class="logo-path" d="M2436 2263 c-53 -91 -55 -142 -8 -184 54 -48 153 -35 180 26 17 37
15 106 -5 135 -35 53 -77 90 -103 90 -21 0 -32 -12 -64 -67z m90 31 c34 -23
74 -94 74 -133 0 -48 -38 -81 -92 -81 -60 0 -88 22 -88 68 0 20 7 48 15 62 8
14 23 42 32 62 20 43 24 44 59 22z" style="animation: fadeIn 0.422s ease forwards 1.853s;"/>
<path class="logo-path" d="M2454 2203 c-9 -34 16 -53 69 -53 31 0 38 3 35 17 -3 19 -63 63 -84
63 -8 0 -17 -12 -20 -27z" style="animation: fadeIn 0.422s ease forwards 1.894s;"/>
<path class="logo-path" d="M3172 2284 c-29 -20 -62 -85 -62 -123 0 -33 39 -86 71 -96 10 -4 16
-11 13 -17 -13 -20 -90 -48 -135 -48 -84 0 -93 -50 -16 -89 83 -41 165 -13
235 79 19 25 42 48 51 52 9 4 71 7 138 7 120 1 122 1 143 29 19 23 21 37 18
99 -3 64 -7 76 -31 100 l-28 28 -25 -29 c-24 -27 -26 -39 -10 -77 9 -21 -29
-29 -129 -29 l-73 0 -12 33 c-27 80 -96 118 -148 81z m423 -49 c18 -45 17
-127 -1 -145 -5 -5 -73 -10 -152 -11 l-143 -1 -18 -36 c-36 -69 -112 -122
-175 -122 -12 0 -41 10 -66 22 l-45 21 66 8 c72 8 119 27 162 67 35 33 34 38
-6 46 -77 14 -103 93 -51 155 49 59 108 32 136 -62 l12 -40 130 7 c71 3 131 8
133 10 3 2 -5 22 -16 45 -18 34 -19 44 -9 61 18 29 24 25 43 -25z" style="animation: fadeIn 0.422s ease forwards 1.935s;"/>
<path class="logo-path" d="M3182 2208 c-27 -27 0 -58 52 -58 32 0 33 20 3 48 -27 25 -38 27 -55
10z" style="animation: fadeIn 0.422s ease forwards 1.976s;"/>
<path class="logo-path" d="M2830 2238 c-24 -39 -25 -58 -5 -84 34 -45 6 -97 -77 -138 -31 -16
-69 -26 -94 -26 -46 0 -69 -18 -60 -47 15 -47 120 -69 189 -39 46 20 107 84
129 136 51 118 -22 296 -82 198z m66 -44 c10 -35 13 -69 9 -92 -17 -96 -108
-182 -192 -182 -39 0 -113 26 -113 39 0 3 26 6 58 7 67 0 119 23 174 74 44 43
50 82 18 123 -20 25 -20 28 -5 57 8 16 20 30 25 30 5 0 17 -25 26 -56z" style="animation: fadeIn 0.422s ease forwards 2.018s;"/>
<path class="logo-path" d="M1469 1751 l-24 -19 23 -25 c24 -25 24 -27 20 -236 l-3 -211 25 -10
c15 -6 37 -7 55 -2 25 7 30 13 29 38 -5 85 -6 265 -3 269 2 2 27 -24 55 -58
111 -134 226 -257 241 -257 37 0 42 28 43 238 0 174 2 206 17 229 16 25 16 26
-6 44 -24 19 -49 23 -88 13 -27 -8 -36 -30 -22 -56 10 -18 15 -225 6 -234 -2
-2 -54 60 -117 137 -62 78 -124 145 -137 150 -39 15 -89 10 -114 -10z m139
-41 c22 -29 89 -110 200 -242 31 -38 59 -68 62 -68 3 0 4 69 2 152 -3 144 -4
154 -25 170 -22 17 -21 18 36 18 54 0 74 -11 42 -24 -13 -4 -15 -39 -15 -226
0 -209 -1 -221 -18 -218 -18 3 -86 78 -250 273 -41 50 -78 91 -81 93 -3 1 -5
-73 -3 -165 2 -133 6 -170 17 -179 24 -18 18 -22 -35 -22 -53 0 -59 4 -35 22
11 9 14 49 16 205 l2 194 -29 24 -29 23 61 0 c55 0 62 -2 82 -30z" style="animation: fadeIn 0.422s ease forwards 2.059s;"/>
<path class="logo-path" d="M2302 1753 c-12 -10 -36 -56 -55 -103 -91 -224 -132 -317 -150 -344
l-20 -29 22 -18 c28 -23 59 -24 89 -3 16 11 20 22 17 37 -3 12 1 39 9 59 15
34 18 36 68 40 89 5 105 0 117 -34 6 -18 8 -47 5 -65 -7 -38 -6 -39 88 -47 53
-4 71 -2 83 10 20 20 19 30 -4 53 -27 27 -34 42 -116 243 -90 221 -106 241
-153 201z m135 -223 c63 -156 90 -211 113 -231 l30 -25 -84 0 c-80 1 -84 2
-69 18 14 16 14 22 -4 70 l-20 53 -92 3 -92 3 -24 -53 c-27 -57 -31 -78 -15
-78 6 0 10 -4 10 -10 0 -5 -24 -10 -52 -10 -52 0 -53 1 -31 18 12 9 45 71 73
137 28 66 55 129 60 140 10 22 53 129 63 158 5 12 15 17 29 15 18 -2 35 -37
105 -208z" style="animation: fadeIn 0.422s ease forwards 2.1s;"/>
<path class="logo-path" d="M2294 1623 c-5 -15 -41 -109 -61 -160 -4 -10 14 -13 71 -13 43 0 76
4 76 10 0 19 -65 180 -73 180 -4 0 -10 -8 -13 -17z m34 -86 c18 -50 15 -57
-23 -57 -19 0 -35 2 -35 5 0 13 33 85 39 85 4 0 12 -15 19 -33z" style="animation: fadeIn 0.422s ease forwards 2.141s;"/>
<path class="logo-path" d="M3002 1752 c-10 -9 -38 -73 -62 -142 -23 -69 -46 -129 -50 -134 -12
-12 -73 181 -74 234 l-1 45 -85 0 c-74 0 -85 -2 -88 -18 -2 -11 5 -29 16 -40
11 -12 50 -110 87 -217 72 -212 86 -240 115 -240 27 0 42 27 90 155 23 61 45
114 49 118 4 4 27 -48 50 -117 24 -68 50 -131 59 -139 17 -15 48 -15 63 0 5 5
39 101 77 213 38 113 76 217 85 231 21 31 14 55 -16 63 -39 10 -64 6 -88 -13
-20 -16 -21 -21 -10 -35 11 -13 8 -33 -19 -123 -17 -59 -35 -111 -39 -115 -4
-5 -24 43 -45 105 -55 162 -57 167 -76 177 -13 7 -24 5 -38 -8z m-204 -28
c-15 -15 -14 -22 3 -83 35 -123 74 -236 83 -241 5 -3 36 73 69 168 36 103 65
172 72 172 8 0 36 -68 70 -175 32 -96 59 -175 61 -175 7 0 22 45 65 184 36
121 38 131 22 148 -15 17 -14 18 35 18 54 0 62 -5 37 -24 -8 -6 -46 -105 -84
-220 -38 -114 -74 -213 -79 -218 -23 -23 -39 6 -91 161 -29 88 -56 161 -60
161 -3 0 -18 -38 -33 -83 -55 -169 -89 -247 -108 -247 -11 0 -22 10 -25 23 -4
12 -36 108 -71 212 -51 149 -71 195 -92 212 l-27 23 85 0 c77 0 83 -1 68 -16z" style="animation: fadeIn 0.422s ease forwards 2.182s;"/>
<path class="logo-path" d="M3494 1761 c-32 -14 -38 -29 -20 -56 13 -20 16 -57 16 -209 0 -112
-4 -187 -10 -191 -20 -12 -10 -45 16 -55 58 -23 144 -5 144 29 0 11 -4 23 -10
26 -15 9 -13 145 3 145 6 0 34 -34 60 -76 28 -43 65 -86 87 -100 98 -65 188
-23 109 52 -18 16 -52 56 -76 88 l-44 60 31 24 c89 70 77 197 -24 246 -43 21
-245 33 -282 17z m283 -46 c42 -24 67 -76 59 -119 -7 -37 -47 -79 -90 -96
l-29 -11 24 -27 c14 -15 45 -54 70 -86 24 -33 56 -67 71 -75 41 -24 34 -34
-18 -28 -62 7 -89 29 -154 125 -50 75 -58 82 -87 82 l-33 0 0 -82 c0 -68 3
-85 20 -103 l20 -22 -75 0 c-41 0 -75 3 -75 6 0 4 10 12 21 20 22 13 22 16 16
209 -4 163 -8 198 -21 208 -9 6 -16 15 -16 19 0 4 60 5 133 3 109 -2 138 -6
164 -23z" style="animation: fadeIn 0.422s ease forwards 2.224s;"/>
<path class="logo-path" d="M3592 1608 l3 -102 50 2 c84 5 125 51 111 126 -9 48 -53 76 -119 76
l-48 0 3 -102z m123 52 c20 -17 19 -79 -2 -102 -10 -11 -30 -18 -55 -18 l-38
0 0 71 0 72 40 -6 c23 -3 47 -11 55 -17z" style="animation: fadeIn 0.422s ease forwards 2.265s;"/>
<path class="logo-path" d="M4243 1753 c-11 -10 -39 -65 -63 -123 -83 -203 -124 -295 -145 -323
l-20 -29 25 -20 c17 -14 33 -18 54 -14 34 7 46 21 46 54 0 12 7 38 14 57 l15
35 80 0 79 0 12 -36 c7 -19 9 -46 6 -59 -10 -39 28 -58 103 -52 33 3 65 8 70
12 18 10 13 35 -13 65 -13 16 -60 115 -105 221 -100 235 -113 253 -158 212z
m82 -93 c17 -41 58 -137 90 -213 43 -104 64 -142 82 -150 12 -5 23 -13 23 -16
0 -3 -39 -7 -87 -8 -73 -1 -85 1 -70 11 21 16 21 29 0 89 l-17 47 -94 0 -93 0
-25 -55 c-15 -33 -23 -63 -19 -75 6 -18 2 -20 -34 -20 -40 0 -55 13 -27 23 7
3 43 77 80 164 125 296 119 284 140 281 13 -2 29 -26 51 -78z" style="animation: fadeIn 0.422s ease forwards 2.306s;"/>
<path class="logo-path" d="M4211 1558 c-18 -46 -35 -89 -38 -95 -4 -10 15 -13 77 -13 62 0 81 3
77 13 -38 97 -73 177 -78 177 -3 0 -21 -37 -38 -82z m57 -15 c5 -16 13 -36 17
-45 6 -16 1 -18 -35 -18 -36 0 -41 2 -35 18 4 9 12 29 17 45 5 15 14 27 18 27
4 0 13 -12 18 -27z" style="animation: fadeIn 0.422s ease forwards 2.347s;"/>
<path class="logo-path" d="M2005 1078 c-46 -25 -59 -74 -30 -115 13 -18 13 -22 0 -33 -19 -16
-19 -54 0 -70 9 -7 37 -15 63 -18 41 -4 52 0 80 23 37 31 42 70 13 106 -17 21
-17 24 -2 51 15 28 15 30 -8 49 -26 21 -84 25 -116 7z m111 -29 c12 -19 -11
-30 -40 -19 -32 12 -68 -2 -60 -24 3 -7 23 -18 44 -25 68 -20 87 -54 50 -91
-29 -29 -130 -25 -130 5 0 10 14 12 56 8 54 -6 56 -5 52 17 -2 18 -12 26 -38
33 -99 25 -90 107 11 107 26 0 51 -5 55 -11z" style="animation: fadeIn 0.422s ease forwards 2.388s;"/>
<path class="logo-path" d="M2237 1072 c-23 -26 -24 -177 -1 -210 29 -42 62 -22 73 48 1 2 19
-13 40 -34 34 -33 42 -36 60 -27 29 16 26 42 -9 86 l-30 38 30 34 c33 37 37
52 18 71 -19 19 -40 14 -75 -20 -23 -22 -33 -27 -33 -17 0 17 -31 49 -47 49
-5 0 -17 -8 -26 -18z m43 -59 l0 -46 54 52 c51 48 76 62 76 43 0 -4 -16 -23
-35 -42 -19 -19 -35 -38 -35 -43 0 -5 18 -31 41 -58 32 -39 37 -49 23 -49 -10
0 -35 19 -56 43 -36 41 -38 41 -53 23 -8 -11 -15 -30 -15 -43 0 -14 -6 -23
-15 -23 -12 0 -15 17 -15 93 0 52 3 97 6 100 14 14 24 -6 24 -50z" style="animation: fadeIn 0.422s ease forwards 2.429s;"/>
<path class="logo-path" d="M2522 1078 c-15 -15 -16 -191 -2 -219 14 -25 46 -25 60 0 5 11 10 62
10 113 0 96 -8 118 -40 118 -9 0 -21 -5 -28 -12z m46 -111 c3 -91 1 -97 -17
-97 -18 0 -20 7 -20 91 -1 96 3 113 22 106 8 -2 13 -38 15 -100z" style="animation: fadeIn 0.422s ease forwards 2.471s;"/>
<path class="logo-path" d="M2691 1076 c-8 -9 -11 -49 -9 -116 3 -87 6 -105 21 -114 15 -9 22 -7
38 13 10 13 19 34 19 48 0 23 3 22 41 -21 46 -52 61 -56 83 -24 23 32 22 190
0 212 -8 9 -21 16 -28 16 -20 0 -46 -34 -46 -61 0 -22 -3 -21 -36 19 -37 43
-63 52 -83 28z m90 -78 l54 -72 5 70 c3 46 9 69 18 69 6 0 12 -3 12 -7 0 -5 0
-48 0 -98 0 -68 -3 -90 -13 -90 -7 0 -35 29 -62 65 -27 36 -53 65 -57 65 -5 0
-8 -29 -8 -65 0 -51 -3 -65 -15 -65 -12 0 -15 18 -15 100 0 76 3 100 13 100 7
0 38 -32 68 -72z" style="animation: fadeIn 0.422s ease forwards 2.512s;"/>
<path class="logo-path" d="M3033 1070 c-79 -48 -82 -150 -7 -209 53 -41 164 -15 164 39 0 27
-18 35 -75 35 -49 0 -50 1 -53 31 -2 25 1 33 18 37 12 3 33 1 46 -5 19 -9 28
-8 44 7 27 24 25 39 -6 64 -34 27 -89 27 -131 1z m123 -24 c28 -21 11 -30 -30
-15 -32 12 -39 11 -63 -7 -34 -26 -43 -77 -17 -105 19 -21 73 -26 92 -7 9 9
15 9 25 -1 18 -18 -17 -41 -64 -41 -63 0 -113 55 -102 113 9 47 46 77 96 77
24 0 52 -6 63 -14z" style="animation: fadeIn 0.422s ease forwards 2.553s;"/>
<path class="logo-path" d="M3343 1071 c-10 -11 -35 -58 -56 -105 -30 -69 -36 -90 -27 -106 14
-26 46 -26 62 0 17 27 74 27 104 -1 24 -23 58 -19 68 7 6 15 -50 155 -80 202
-18 27 -47 28 -71 3z m57 -21 c0 -6 44 -102 78 -172 2 -5 -5 -8 -16 -8 -12 0
-23 9 -27 20 -5 17 -15 20 -60 20 -45 0 -55 -3 -60 -20 -4 -11 -15 -20 -27
-20 -11 0 -18 3 -16 8 2 4 21 43 41 86 21 44 42 85 48 92 11 13 39 9 39 -6z" style="animation: fadeIn 0.422s ease forwards 2.594s;"/>
<path class="logo-path" d="M3355 984 c-8 -20 -15 -38 -15 -40 0 -2 16 -4 35 -4 19 0 35 2 35 5
0 11 -29 75 -34 75 -3 0 -13 -16 -21 -36z" style="animation: fadeIn 0.422s ease forwards 2.635s;"/>
<path class="logo-path" d="M3582 1078 c-8 -8 -12 -48 -12 -114 0 -80 3 -104 16 -115 19 -16 44
-3 59 29 13 29 17 28 43 -8 13 -16 31 -30 42 -30 28 0 43 33 29 63 -8 18 -8
30 0 45 20 38 13 81 -18 113 -26 25 -37 29 -88 29 -33 0 -64 -5 -71 -12z m148
-38 c26 -26 25 -58 -2 -87 l-21 -23 21 -23 c27 -28 28 -37 4 -37 -10 0 -26 14
-35 30 -14 23 -25 30 -48 30 -26 0 -29 -3 -29 -30 0 -20 -5 -30 -15 -30 -12 0
-15 17 -15 95 l0 95 60 0 c47 0 64 -4 80 -20z" style="animation: fadeIn 0.422s ease forwards 2.676s;"/>
<path class="logo-path" d="M3620 995 l0 -36 43 3 c39 3 42 5 42 33 0 28 -3 30 -42 33 l-43 3 0
-36z m57 -1 c-3 -3 -12 -4 -19 -1 -8 3 -5 6 6 6 11 1 17 -2 13 -5z" style="animation: fadeIn 0.422s ease forwards 2.718s;"/>
<path class="logo-path" d="M3862 1078 c-17 -17 -16 -197 2 -220 10 -14 28 -18 83 -18 40 0 74 5
81 12 16 16 15 43 -1 56 -16 14 -15 89 2 120 11 20 10 27 -5 43 -14 15 -31 19
-84 19 -38 0 -71 -5 -78 -12z m156 -30 c-3 -8 -26 -14 -56 -16 -48 -3 -52 -5
-52 -28 0 -22 4 -24 45 -24 33 0 45 -4 45 -15 0 -11 -12 -15 -45 -15 -41 0
-45 -2 -45 -25 0 -24 3 -25 55 -25 43 0 55 -3 55 -15 0 -13 -13 -15 -72 -13
l-73 3 -3 93 -3 92 76 0 c57 0 76 -3 73 -12z" style="animation: fadeIn 0.422s ease forwards 2.759s;"/>
</g></svg>
